<mxfile host="app.diagrams.net" modified="2021-11-08T17:49:42.612Z" agent="5.0 (Windows NT 10.0; Win64; x64) AppleWebKit/537.36 (KHTML, like Gecko) Chrome/95.0.4638.69 Safari/537.36" etag="5IiQOfbhsDv49p39H20X" version="15.7.0" type="github">
  <diagram id="C5RBs43oDa-KdzZeNtuy" name="Page-1">
    <mxGraphModel dx="868" dy="1619" grid="1" gridSize="10" guides="1" tooltips="1" connect="1" arrows="1" fold="1" page="1" pageScale="1" pageWidth="827" pageHeight="1169" math="0" shadow="0">
      <root>
        <mxCell id="WIyWlLk6GJQsqaUBKTNV-0" />
        <mxCell id="WIyWlLk6GJQsqaUBKTNV-1" parent="WIyWlLk6GJQsqaUBKTNV-0" />
        <mxCell id="PCKyY9l_gZK5TUJVvz_w-4" value="Inventory class" style="swimlane;fontStyle=1;align=center;verticalAlign=top;childLayout=stackLayout;horizontal=1;startSize=30;horizontalStack=0;resizeParent=1;resizeParentMax=0;resizeLast=0;collapsible=1;marginBottom=0;" vertex="1" parent="WIyWlLk6GJQsqaUBKTNV-1">
          <mxGeometry x="120" y="470" width="180" height="294" as="geometry" />
        </mxCell>
        <mxCell id="PCKyY9l_gZK5TUJVvz_w-5" value="+ inventory_id: int&#xa;&#xa;+inventory_description:string&#xa;&#xa;+Inventory_number:string&#xa;&#xa;+inventory_type:string&#xa;&#xa;+inventory_items:string" style="text;strokeColor=none;fillColor=none;align=left;verticalAlign=top;spacingLeft=4;spacingRight=4;overflow=hidden;rotatable=0;points=[[0,0.5],[1,0.5]];portConstraint=eastwest;" vertex="1" parent="PCKyY9l_gZK5TUJVvz_w-4">
          <mxGeometry y="30" width="180" height="144" as="geometry" />
        </mxCell>
        <mxCell id="PCKyY9l_gZK5TUJVvz_w-6" value="" style="line;strokeWidth=1;fillColor=none;align=left;verticalAlign=middle;spacingTop=-1;spacingLeft=3;spacingRight=3;rotatable=0;labelPosition=right;points=[];portConstraint=eastwest;" vertex="1" parent="PCKyY9l_gZK5TUJVvz_w-4">
          <mxGeometry y="174" width="180" height="8" as="geometry" />
        </mxCell>
        <mxCell id="PCKyY9l_gZK5TUJVvz_w-7" value="+ addInventory(): int&#xa;&#xa;+ editInventory():int&#xa;&#xa;+ deleteInventory():int&#xa;&#xa;+ searchInventory():int" style="text;strokeColor=none;fillColor=none;align=left;verticalAlign=top;spacingLeft=4;spacingRight=4;overflow=hidden;rotatable=0;points=[[0,0.5],[1,0.5]];portConstraint=eastwest;" vertex="1" parent="PCKyY9l_gZK5TUJVvz_w-4">
          <mxGeometry y="182" width="180" height="112" as="geometry" />
        </mxCell>
        <mxCell id="PCKyY9l_gZK5TUJVvz_w-8" value="Supplier Class" style="swimlane;fontStyle=1;align=center;verticalAlign=top;childLayout=stackLayout;horizontal=1;startSize=26;horizontalStack=0;resizeParent=1;resizeParentMax=0;resizeLast=0;collapsible=1;marginBottom=0;" vertex="1" parent="WIyWlLk6GJQsqaUBKTNV-1">
          <mxGeometry x="590" y="450" width="160" height="310" as="geometry" />
        </mxCell>
        <mxCell id="PCKyY9l_gZK5TUJVvz_w-9" value="+ supplier_id: int&#xa; &#xa;+supplier_name:string&#xa;&#xa;+supplier_username:string&#xa;&#xa;+supplier_password:int" style="text;strokeColor=none;fillColor=none;align=left;verticalAlign=top;spacingLeft=4;spacingRight=4;overflow=hidden;rotatable=0;points=[[0,0.5],[1,0.5]];portConstraint=eastwest;" vertex="1" parent="PCKyY9l_gZK5TUJVvz_w-8">
          <mxGeometry y="26" width="160" height="124" as="geometry" />
        </mxCell>
        <mxCell id="PCKyY9l_gZK5TUJVvz_w-10" value="" style="line;strokeWidth=1;fillColor=none;align=left;verticalAlign=middle;spacingTop=-1;spacingLeft=3;spacingRight=3;rotatable=0;labelPosition=right;points=[];portConstraint=eastwest;" vertex="1" parent="PCKyY9l_gZK5TUJVvz_w-8">
          <mxGeometry y="150" width="160" height="8" as="geometry" />
        </mxCell>
        <mxCell id="PCKyY9l_gZK5TUJVvz_w-11" value="+ addSupplier(): int&#xa;&#xa;+ editSupplier(): int&#xa;&#xa;+ deleteSupplier(): int&#xa;&#xa;+ updateSupplier():int&#xa;&#xa;+ saveSupplier():string" style="text;strokeColor=none;fillColor=none;align=left;verticalAlign=top;spacingLeft=4;spacingRight=4;overflow=hidden;rotatable=0;points=[[0,0.5],[1,0.5]];portConstraint=eastwest;" vertex="1" parent="PCKyY9l_gZK5TUJVvz_w-8">
          <mxGeometry y="158" width="160" height="152" as="geometry" />
        </mxCell>
        <mxCell id="PCKyY9l_gZK5TUJVvz_w-12" value="Admin Class" style="swimlane;fontStyle=1;align=center;verticalAlign=top;childLayout=stackLayout;horizontal=1;startSize=26;horizontalStack=0;resizeParent=1;resizeParentMax=0;resizeLast=0;collapsible=1;marginBottom=0;" vertex="1" parent="WIyWlLk6GJQsqaUBKTNV-1">
          <mxGeometry x="120" y="-120" width="160" height="310" as="geometry" />
        </mxCell>
        <mxCell id="PCKyY9l_gZK5TUJVvz_w-13" value="+ admin_id: int&#xa; &#xa;+ admin_name:string&#xa;&#xa;+ admin_username:string&#xa;&#xa;+ admin_password:int" style="text;strokeColor=none;fillColor=none;align=left;verticalAlign=top;spacingLeft=4;spacingRight=4;overflow=hidden;rotatable=0;points=[[0,0.5],[1,0.5]];portConstraint=eastwest;" vertex="1" parent="PCKyY9l_gZK5TUJVvz_w-12">
          <mxGeometry y="26" width="160" height="124" as="geometry" />
        </mxCell>
        <mxCell id="PCKyY9l_gZK5TUJVvz_w-14" value="" style="line;strokeWidth=1;fillColor=none;align=left;verticalAlign=middle;spacingTop=-1;spacingLeft=3;spacingRight=3;rotatable=0;labelPosition=right;points=[];portConstraint=eastwest;" vertex="1" parent="PCKyY9l_gZK5TUJVvz_w-12">
          <mxGeometry y="150" width="160" height="8" as="geometry" />
        </mxCell>
        <mxCell id="PCKyY9l_gZK5TUJVvz_w-15" value="+ addAdmin(): int&#xa;&#xa;+ editAdmin(): int&#xa;&#xa;+ deleteAdmin(): int&#xa;&#xa;+ updateAdmin():int&#xa;&#xa;+ saveAdmin():string" style="text;strokeColor=none;fillColor=none;align=left;verticalAlign=top;spacingLeft=4;spacingRight=4;overflow=hidden;rotatable=0;points=[[0,0.5],[1,0.5]];portConstraint=eastwest;" vertex="1" parent="PCKyY9l_gZK5TUJVvz_w-12">
          <mxGeometry y="158" width="160" height="152" as="geometry" />
        </mxCell>
      </root>
    </mxGraphModel>
  </diagram>
</mxfile>
